%TF.GenerationSoftware,KiCad,Pcbnew,9.0.0*%
%TF.CreationDate,2025-03-14T20:33:42+05:30*%
%TF.ProjectId,ir-switch,69722d73-7769-4746-9368-2e6b69636164,rev?*%
%TF.SameCoordinates,Original*%
%TF.FileFunction,Legend,Top*%
%TF.FilePolarity,Positive*%
%FSLAX46Y46*%
G04 Gerber Fmt 4.6, Leading zero omitted, Abs format (unit mm)*
G04 Created by KiCad (PCBNEW 9.0.0) date 2025-03-14 20:33:42*
%MOMM*%
%LPD*%
G01*
G04 APERTURE LIST*
%ADD10C,0.150000*%
%ADD11C,0.120000*%
G04 APERTURE END LIST*
D10*
X138833333Y-88409580D02*
X138785714Y-88457200D01*
X138785714Y-88457200D02*
X138642857Y-88504819D01*
X138642857Y-88504819D02*
X138547619Y-88504819D01*
X138547619Y-88504819D02*
X138404762Y-88457200D01*
X138404762Y-88457200D02*
X138309524Y-88361961D01*
X138309524Y-88361961D02*
X138261905Y-88266723D01*
X138261905Y-88266723D02*
X138214286Y-88076247D01*
X138214286Y-88076247D02*
X138214286Y-87933390D01*
X138214286Y-87933390D02*
X138261905Y-87742914D01*
X138261905Y-87742914D02*
X138309524Y-87647676D01*
X138309524Y-87647676D02*
X138404762Y-87552438D01*
X138404762Y-87552438D02*
X138547619Y-87504819D01*
X138547619Y-87504819D02*
X138642857Y-87504819D01*
X138642857Y-87504819D02*
X138785714Y-87552438D01*
X138785714Y-87552438D02*
X138833333Y-87600057D01*
X139785714Y-88504819D02*
X139214286Y-88504819D01*
X139500000Y-88504819D02*
X139500000Y-87504819D01*
X139500000Y-87504819D02*
X139404762Y-87647676D01*
X139404762Y-87647676D02*
X139309524Y-87742914D01*
X139309524Y-87742914D02*
X139214286Y-87790533D01*
X145583333Y-89109580D02*
X145535714Y-89157200D01*
X145535714Y-89157200D02*
X145392857Y-89204819D01*
X145392857Y-89204819D02*
X145297619Y-89204819D01*
X145297619Y-89204819D02*
X145154762Y-89157200D01*
X145154762Y-89157200D02*
X145059524Y-89061961D01*
X145059524Y-89061961D02*
X145011905Y-88966723D01*
X145011905Y-88966723D02*
X144964286Y-88776247D01*
X144964286Y-88776247D02*
X144964286Y-88633390D01*
X144964286Y-88633390D02*
X145011905Y-88442914D01*
X145011905Y-88442914D02*
X145059524Y-88347676D01*
X145059524Y-88347676D02*
X145154762Y-88252438D01*
X145154762Y-88252438D02*
X145297619Y-88204819D01*
X145297619Y-88204819D02*
X145392857Y-88204819D01*
X145392857Y-88204819D02*
X145535714Y-88252438D01*
X145535714Y-88252438D02*
X145583333Y-88300057D01*
X145964286Y-88300057D02*
X146011905Y-88252438D01*
X146011905Y-88252438D02*
X146107143Y-88204819D01*
X146107143Y-88204819D02*
X146345238Y-88204819D01*
X146345238Y-88204819D02*
X146440476Y-88252438D01*
X146440476Y-88252438D02*
X146488095Y-88300057D01*
X146488095Y-88300057D02*
X146535714Y-88395295D01*
X146535714Y-88395295D02*
X146535714Y-88490533D01*
X146535714Y-88490533D02*
X146488095Y-88633390D01*
X146488095Y-88633390D02*
X145916667Y-89204819D01*
X145916667Y-89204819D02*
X146535714Y-89204819D01*
X130261905Y-83494819D02*
X130261905Y-82494819D01*
X130261905Y-82494819D02*
X130500000Y-82494819D01*
X130500000Y-82494819D02*
X130642857Y-82542438D01*
X130642857Y-82542438D02*
X130738095Y-82637676D01*
X130738095Y-82637676D02*
X130785714Y-82732914D01*
X130785714Y-82732914D02*
X130833333Y-82923390D01*
X130833333Y-82923390D02*
X130833333Y-83066247D01*
X130833333Y-83066247D02*
X130785714Y-83256723D01*
X130785714Y-83256723D02*
X130738095Y-83351961D01*
X130738095Y-83351961D02*
X130642857Y-83447200D01*
X130642857Y-83447200D02*
X130500000Y-83494819D01*
X130500000Y-83494819D02*
X130261905Y-83494819D01*
X131785714Y-83494819D02*
X131214286Y-83494819D01*
X131500000Y-83494819D02*
X131500000Y-82494819D01*
X131500000Y-82494819D02*
X131404762Y-82637676D01*
X131404762Y-82637676D02*
X131309524Y-82732914D01*
X131309524Y-82732914D02*
X131214286Y-82780533D01*
X117954819Y-74461904D02*
X118764342Y-74461904D01*
X118764342Y-74461904D02*
X118859580Y-74414285D01*
X118859580Y-74414285D02*
X118907200Y-74366666D01*
X118907200Y-74366666D02*
X118954819Y-74271428D01*
X118954819Y-74271428D02*
X118954819Y-74080952D01*
X118954819Y-74080952D02*
X118907200Y-73985714D01*
X118907200Y-73985714D02*
X118859580Y-73938095D01*
X118859580Y-73938095D02*
X118764342Y-73890476D01*
X118764342Y-73890476D02*
X117954819Y-73890476D01*
X118050057Y-73461904D02*
X118002438Y-73414285D01*
X118002438Y-73414285D02*
X117954819Y-73319047D01*
X117954819Y-73319047D02*
X117954819Y-73080952D01*
X117954819Y-73080952D02*
X118002438Y-72985714D01*
X118002438Y-72985714D02*
X118050057Y-72938095D01*
X118050057Y-72938095D02*
X118145295Y-72890476D01*
X118145295Y-72890476D02*
X118240533Y-72890476D01*
X118240533Y-72890476D02*
X118383390Y-72938095D01*
X118383390Y-72938095D02*
X118954819Y-73509523D01*
X118954819Y-73509523D02*
X118954819Y-72890476D01*
X138138095Y-71134819D02*
X138138095Y-71944342D01*
X138138095Y-71944342D02*
X138185714Y-72039580D01*
X138185714Y-72039580D02*
X138233333Y-72087200D01*
X138233333Y-72087200D02*
X138328571Y-72134819D01*
X138328571Y-72134819D02*
X138519047Y-72134819D01*
X138519047Y-72134819D02*
X138614285Y-72087200D01*
X138614285Y-72087200D02*
X138661904Y-72039580D01*
X138661904Y-72039580D02*
X138709523Y-71944342D01*
X138709523Y-71944342D02*
X138709523Y-71134819D01*
X139709523Y-72134819D02*
X139138095Y-72134819D01*
X139423809Y-72134819D02*
X139423809Y-71134819D01*
X139423809Y-71134819D02*
X139328571Y-71277676D01*
X139328571Y-71277676D02*
X139233333Y-71372914D01*
X139233333Y-71372914D02*
X139138095Y-71420533D01*
X131374819Y-78626666D02*
X130898628Y-78959999D01*
X131374819Y-79198094D02*
X130374819Y-79198094D01*
X130374819Y-79198094D02*
X130374819Y-78817142D01*
X130374819Y-78817142D02*
X130422438Y-78721904D01*
X130422438Y-78721904D02*
X130470057Y-78674285D01*
X130470057Y-78674285D02*
X130565295Y-78626666D01*
X130565295Y-78626666D02*
X130708152Y-78626666D01*
X130708152Y-78626666D02*
X130803390Y-78674285D01*
X130803390Y-78674285D02*
X130851009Y-78721904D01*
X130851009Y-78721904D02*
X130898628Y-78817142D01*
X130898628Y-78817142D02*
X130898628Y-79198094D01*
X130470057Y-78245713D02*
X130422438Y-78198094D01*
X130422438Y-78198094D02*
X130374819Y-78102856D01*
X130374819Y-78102856D02*
X130374819Y-77864761D01*
X130374819Y-77864761D02*
X130422438Y-77769523D01*
X130422438Y-77769523D02*
X130470057Y-77721904D01*
X130470057Y-77721904D02*
X130565295Y-77674285D01*
X130565295Y-77674285D02*
X130660533Y-77674285D01*
X130660533Y-77674285D02*
X130803390Y-77721904D01*
X130803390Y-77721904D02*
X131374819Y-78293332D01*
X131374819Y-78293332D02*
X131374819Y-77674285D01*
X147873333Y-70034819D02*
X147540000Y-69558628D01*
X147301905Y-70034819D02*
X147301905Y-69034819D01*
X147301905Y-69034819D02*
X147682857Y-69034819D01*
X147682857Y-69034819D02*
X147778095Y-69082438D01*
X147778095Y-69082438D02*
X147825714Y-69130057D01*
X147825714Y-69130057D02*
X147873333Y-69225295D01*
X147873333Y-69225295D02*
X147873333Y-69368152D01*
X147873333Y-69368152D02*
X147825714Y-69463390D01*
X147825714Y-69463390D02*
X147778095Y-69511009D01*
X147778095Y-69511009D02*
X147682857Y-69558628D01*
X147682857Y-69558628D02*
X147301905Y-69558628D01*
X148825714Y-70034819D02*
X148254286Y-70034819D01*
X148540000Y-70034819D02*
X148540000Y-69034819D01*
X148540000Y-69034819D02*
X148444762Y-69177676D01*
X148444762Y-69177676D02*
X148349524Y-69272914D01*
X148349524Y-69272914D02*
X148254286Y-69320533D01*
D11*
%TO.C,C1*%
X139629000Y-86920000D02*
X138371000Y-86920000D01*
X139629000Y-85080000D02*
X138371000Y-85080000D01*
%TO.C,C2*%
X147870000Y-85500000D02*
G75*
G02*
X143630000Y-85500000I-2120000J0D01*
G01*
X143630000Y-85500000D02*
G75*
G02*
X147870000Y-85500000I2120000J0D01*
G01*
%TO.C,D1*%
X129440000Y-84764000D02*
X129440000Y-84920000D01*
X129440000Y-87080000D02*
X129440000Y-87236000D01*
X129440000Y-84764484D02*
G75*
G02*
X132671397Y-84919939I1560000J-1235516D01*
G01*
X129959039Y-84920000D02*
G75*
G02*
X132040910Y-84919951I1040961J-1080000D01*
G01*
X132040910Y-87080049D02*
G75*
G02*
X129959039Y-87080000I-1040910J1080049D01*
G01*
X132671397Y-87080061D02*
G75*
G02*
X129440000Y-87235516I-1671397J1080061D01*
G01*
%TO.C,U2*%
X121000000Y-78800000D02*
X123500000Y-78800000D01*
X123500000Y-78800000D02*
X123500000Y-76600000D01*
X123500000Y-76600000D02*
X123500000Y-70900000D01*
X123500000Y-71000000D02*
X123500000Y-68600000D01*
X119300000Y-68600000D02*
X119300000Y-77500000D01*
X123500000Y-68600000D02*
X119300000Y-68600000D01*
X123500000Y-70950000D02*
G75*
G02*
X123504232Y-76606256I-2500000J-2830000D01*
G01*
%TO.C,U1*%
X136250000Y-72680000D02*
X136250000Y-82960000D01*
X136250000Y-82960000D02*
X141550000Y-82960000D01*
X137900000Y-72680000D02*
X136250000Y-72680000D01*
X141550000Y-72680000D02*
X139900000Y-72680000D01*
X141550000Y-82960000D02*
X141550000Y-72680000D01*
X139900000Y-72680000D02*
G75*
G02*
X137900000Y-72680000I-1000000J0D01*
G01*
%TO.C,R2*%
X129920000Y-76540000D02*
X129920000Y-80380000D01*
X128080000Y-76540000D02*
X128080000Y-80380000D01*
%TO.C,R1*%
X146120000Y-70580000D02*
X149960000Y-70580000D01*
X146120000Y-72420000D02*
X149960000Y-72420000D01*
%TD*%
M02*
